<svg width="32" height="32" viewBox="0 0 32 32" fill="none" xmlns="http://www.w3.org/2000/svg">
<rect width="32" height="32" rx="16" fill="black"/>
<path d="M20.4763 18.3238C19.9198 19.3159 19.3736 20.2715 18.8453 21.2369C18.7116 21.4813 18.5537 21.5552 18.2699 21.5984C17.2544 21.7533 16.5452 21.4528 16.1695 20.4494C16.0571 20.1491 15.8355 19.8897 15.6354 19.5655C15.2687 20.17 14.9325 20.7028 14.6199 21.2492C14.4817 21.4907 14.311 21.5582 14.0324 21.5976C13.0206 21.7407 12.4565 21.3795 11.9564 20.4317C10.4631 17.6012 8.82666 14.8463 7.24596 12.062C6.84442 11.3546 6.91497 11.062 7.60272 10.6564C10.16 9.1486 12.7212 7.6474 15.2738 6.13178C15.5304 5.97944 15.7148 5.94334 15.9917 6.10824C18.5707 7.6442 21.1606 9.16194 23.7467 10.6858C24.3471 11.0396 24.4264 11.3565 24.0715 11.9835C23.004 13.8695 21.9353 15.7548 20.8667 17.6402C20.7434 17.8578 20.6178 18.0741 20.4763 18.3238ZM10.77 10.359C10.0453 10.7876 9.32066 11.2162 8.58536 11.6511C9.63506 13.5052 10.6552 15.307 11.7037 17.159C11.9936 16.6701 12.2171 16.2197 12.5092 15.8195C12.8508 15.3517 12.8316 14.978 12.4969 14.4911C11.8985 13.6206 11.3884 12.6895 10.802 11.7187C11.2249 11.7187 11.5567 11.7433 11.8832 11.7121C12.2428 11.6778 12.4622 11.7914 12.6404 12.1193C12.9543 12.6967 13.3208 13.2455 13.6917 13.8492C13.9589 13.392 14.2374 13.0082 14.4195 12.5831C14.7233 11.8739 15.2093 11.554 15.9668 11.7298C16.1624 11.7752 16.3988 11.8837 16.5037 12.0393C16.8873 12.6084 17.2233 13.2095 17.6052 13.8453C18.0071 13.1834 18.362 12.5807 18.7393 11.9924C18.8166 11.8719 18.9725 11.7359 19.1011 11.7263C19.539 11.6934 19.981 11.7137 20.4908 11.7137C19.8259 12.7992 19.2056 13.8043 18.5964 14.8161C18.5177 14.947 18.4114 15.1587 18.4631 15.2548C18.8049 15.8893 19.1864 16.5024 19.58 17.1648C20.6411 15.28 21.6606 13.4691 22.6903 11.6403C20.397 10.2843 18.1475 8.9474 15.8847 7.63325C15.7469 7.5532 15.4684 7.59178 15.3158 7.67988C13.8138 8.54716 12.3246 9.43663 10.77 10.359ZM17.0025 17.3933C16.8614 17.6193 16.6981 17.8352 16.5884 18.0756C16.5323 18.1987 16.5149 18.3987 16.5778 18.5071C16.9356 19.1229 17.323 19.7216 17.7376 20.3858C18.0822 19.786 18.4106 19.2336 18.7134 18.6674C18.7608 18.5789 18.7261 18.4088 18.6704 18.3093C18.3298 17.7005 17.9722 17.1011 17.5858 16.4395C17.3856 16.7679 17.2137 17.0499 17.0025 17.3933ZM13.7904 16.6072C13.7211 16.6114 13.6093 16.5899 13.589 16.6236C13.2454 17.1928 12.9079 17.7659 12.5844 18.3467C12.5366 18.4324 12.5233 18.5851 12.5678 18.6667C12.8737 19.229 13.1991 19.7806 13.5518 20.3939C14.0016 19.6568 14.4117 18.9849 14.8193 18.3171C14.4793 17.7491 14.155 17.2076 13.7904 16.6072ZM14.5612 15.2761C14.9077 15.8518 15.2541 16.4274 15.6385 17.0661C16.0217 16.4279 16.3716 15.8511 16.7123 15.2689C16.7484 15.2072 16.7639 15.0946 16.7319 15.0379C16.3797 14.4134 16.0161 13.7954 15.6083 13.0943C15.2145 13.8654 14.8727 14.5346 14.5612 15.2761Z" fill="white"/>
<path d="M12.631 22.7212C13.554 23.2626 14.4488 23.78 15.3332 24.3145C15.5556 24.4489 15.7177 24.4691 15.9594 24.3247C18.1633 23.0079 20.3813 21.7146 22.5823 20.3931C22.7361 20.3007 22.8693 20.0398 22.8734 19.8542C22.8997 18.6693 22.8652 17.4829 22.9003 16.2985C22.9111 15.9348 23.0246 15.5503 23.1838 15.22C23.4753 14.6157 23.8359 14.0446 24.2444 13.4882C24.2444 15.4174 24.2465 17.3465 24.2431 19.2756C24.2421 19.8406 24.4091 20.5102 24.1638 20.941C23.9179 21.3729 23.2581 21.5744 22.7715 21.8629C20.5057 23.2063 18.2353 24.542 15.9722 25.8897C15.7474 26.0236 15.5843 26.0448 15.3439 25.9017C12.7222 24.3417 10.0947 22.7912 7.4594 21.2543C7.14792 21.0726 7.02549 20.879 7.02837 20.5109C7.04667 18.1739 7.03767 15.8368 7.08277 13.4802C7.54111 14.4852 8.48609 15.2492 8.40436 16.5248C8.33619 17.589 8.40699 18.6614 8.38129 19.7294C8.37255 20.0926 8.48261 20.2983 8.80074 20.4794C10.0757 21.2051 11.3343 21.9596 12.631 22.7212Z" fill="url(#paint0_linear_624_15)"/>
<defs>
<linearGradient id="paint0_linear_624_15" x1="15.663" y1="13.4802" x2="15.663" y2="25.9999" gradientUnits="userSpaceOnUse">
<stop stop-color="white"/>
<stop offset="1" stop-color="#999999"/>
</linearGradient>
</defs>
</svg>
