<svg viewBox="0 0 559 200" fill="none" xmlns="http://www.w3.org/2000/svg">
<path d="M134.471 122.971C128.918 132.869 123.468 142.405 118.196 152.038C116.862 154.477 115.287 155.214 112.455 155.646C102.322 157.191 95.2448 154.192 91.4961 144.18C90.3744 141.184 88.1634 138.596 86.1671 135.36C82.5078 141.392 79.1531 146.709 76.0339 152.161C74.6549 154.571 72.9519 155.244 70.1714 155.637C60.0756 157.065 54.4465 153.461 49.4568 144.003C34.5562 115.76 18.227 88.2708 2.45431 60.4879C-1.55247 53.4301 -0.848495 50.5097 6.01417 46.4632C31.5313 31.4176 57.0878 16.4383 82.5588 1.31498C85.1192 -0.205193 86.9596 -0.565391 89.7223 1.08001C115.456 16.4063 141.299 31.5507 167.104 46.7566C173.095 50.2868 173.886 53.449 170.345 59.7053C159.693 78.524 149.03 97.3364 138.367 116.149C137.136 118.321 135.882 120.479 134.471 122.971ZM37.6179 43.4957C30.3871 47.7723 23.1563 52.0489 15.8193 56.3884C26.2935 74.8888 36.4726 92.868 46.9353 111.348C49.8279 106.469 52.0575 101.975 54.9728 97.982C58.381 93.3139 58.1898 89.5852 54.8497 84.7263C48.879 76.0408 43.7884 66.7501 37.9376 57.0629C42.1579 57.0629 45.4686 57.3082 48.7262 56.9971C52.3143 56.6543 54.5033 57.788 56.2822 61.0606C59.4139 66.8218 63.071 72.2973 66.7716 78.3215C69.4381 73.7593 72.2172 69.9296 74.0342 65.6878C77.0652 58.6116 81.9151 55.4194 89.4734 57.1732C91.4259 57.6263 93.7845 58.7091 94.8309 60.2615C98.6585 65.9401 102.011 71.9389 105.822 78.2824C109.832 71.6778 113.374 65.6641 117.139 59.7934C117.91 58.5913 119.465 57.2348 120.748 57.1384C125.119 56.8099 129.529 57.0127 134.615 57.0127C127.982 67.844 121.791 77.8734 115.713 87.97C114.927 89.2753 113.866 91.3884 114.382 92.3465C117.793 98.678 121.599 104.796 125.528 111.405C136.115 92.5989 146.289 74.5288 156.563 56.2802C133.679 42.7503 111.233 29.41 88.6547 16.297C87.2795 15.4983 84.5006 15.8833 82.9781 16.7624C67.9904 25.4163 53.1304 34.2916 37.6179 43.4957ZM99.8087 113.685C98.4007 115.941 96.7713 118.095 95.6767 120.494C95.1162 121.722 94.9424 123.718 95.5706 124.799C99.1411 130.944 103.007 136.918 107.143 143.546C110.582 137.561 113.859 132.048 116.881 126.399C117.353 125.516 117.007 123.818 116.451 122.826C113.053 116.75 109.485 110.77 105.628 104.168C103.631 107.445 101.916 110.26 99.8087 113.685ZM67.7565 105.842C67.0655 105.884 65.9498 105.669 65.7468 106.006C62.3189 111.685 58.9514 117.404 55.7229 123.199C55.2463 124.054 55.1138 125.578 55.557 126.392C58.6093 132.003 61.8571 137.507 65.3758 143.626C69.8644 136.272 73.9564 129.567 78.0238 122.903C74.6305 117.236 71.395 111.833 67.7565 105.842ZM75.4481 92.5595C78.9052 98.3037 82.3623 104.048 86.1979 110.421C90.0217 104.053 93.5133 98.2972 96.9123 92.4879C97.2726 91.8721 97.4279 90.7487 97.1084 90.1823C93.5936 83.9517 89.9657 77.7847 85.8963 70.7889C81.9668 78.4827 78.5563 85.1605 75.4481 92.5595Z" fill="white"/>
<path d="M56.189 166.85C65.3989 172.253 74.3272 177.416 83.1524 182.749C85.3717 184.091 86.9897 184.292 89.4014 182.851C111.393 169.712 133.524 156.807 155.486 143.62C157.021 142.698 158.35 140.095 158.391 138.243C158.653 126.42 158.309 114.582 158.66 102.763C158.767 99.1341 159.9 95.297 161.489 92.0017C164.397 85.9713 167.995 80.2734 172.071 74.7216C172.071 93.971 172.093 113.221 172.058 132.47C172.048 138.107 173.715 144.789 171.267 149.087C168.814 153.397 162.23 155.407 157.374 158.286C134.766 171.691 112.111 185.019 89.5283 198.467C87.2858 199.803 85.6585 200.014 83.2594 198.587C57.0989 183.02 30.8813 167.549 4.58518 152.213C1.47705 150.401 0.255428 148.469 0.284187 144.795C0.466751 121.477 0.376967 98.156 0.82701 74.6416C5.40043 84.6691 14.8298 92.2928 14.0143 105.021C13.334 115.64 14.0405 126.341 13.7841 136.998C13.6969 140.621 14.795 142.674 17.9695 144.481C30.6915 151.723 43.2502 159.251 56.189 166.85Z" fill="white"/>
<path d="M231.548 130.778C228.712 131.11 227.18 130.616 226.357 127.866C220.494 108.286 214.454 88.7601 208.266 68.5523C212.57 68.5523 216.51 68.3287 220.395 68.6957C221.486 68.7989 222.947 70.47 223.334 71.7054C227.065 83.6035 230.597 95.564 234.206 107.501C234.525 108.558 234.983 109.574 235.653 111.334C240.095 96.6347 244.301 82.7163 248.529 68.724C252.945 68.724 257.063 68.724 261.502 68.724C265.734 82.7456 269.942 96.6872 274.593 112.098C279.205 96.768 283.385 82.879 287.631 68.7656C291.857 68.7656 296.14 68.7656 301.111 68.7656C294.793 89.519 288.572 109.956 282.3 130.559C277.367 130.559 272.594 130.559 267.386 130.559C263.36 117.344 259.308 104.043 254.894 89.5562C250.401 104.018 246.281 117.28 242.088 130.777C238.646 130.777 235.326 130.777 231.548 130.778Z" fill="white"/>
<path d="M433.787 93.6699C433.787 106.137 433.787 118.105 433.787 130.423C429.495 130.423 425.446 130.423 421.007 130.423C421.007 118.949 421.007 107.498 421.007 96.046C420.722 95.9302 420.436 95.8143 420.151 95.6985C419.518 96.6429 418.812 97.5468 418.264 98.5382C414.084 106.103 409.981 113.71 405.758 121.25C403.408 125.445 398.478 125.486 396.064 121.307C391.328 113.106 386.718 104.833 381.255 95.1743C381.255 107.803 381.255 119.034 381.255 130.518C376.439 130.518 372.371 130.518 368.148 130.518C368.148 109.931 368.148 89.4807 368.148 69.1014C368.595 68.8851 368.868 68.6801 369.17 68.6175C376.86 67.024 381.484 69.8853 384.888 77.2314C389.462 87.1016 395.39 96.3438 401.094 106.489C406.749 96.2377 412.78 86.8231 417.248 76.7171C420.713 68.8795 425.789 67.2271 433.787 69.0746C433.787 76.9509 433.787 85.0604 433.787 93.6699Z" fill="white"/>
<path d="M308.326 87.67C308.326 81.1956 308.326 75.2212 308.326 69.5687C320.004 69.5687 331.529 68.4361 342.717 69.8907C353.664 71.314 359.299 81.0858 358.518 93.0318C357.834 103.489 350.488 111.588 339.944 112.663C334.211 113.247 328.371 112.767 322.115 112.767C322.115 119.087 322.115 124.677 322.115 130.518C317.397 130.518 313.147 130.518 308.326 130.518C308.326 116.372 308.326 102.271 308.326 87.67ZM337.036 80.7234C332.13 80.7234 327.224 80.7234 322.411 80.7234C322.411 87.6826 322.411 94.379 322.411 101.311C326.6 101.311 330.411 101.482 334.2 101.273C340.44 100.929 343.785 98.0685 344.738 92.6423C345.686 87.2458 343.551 83.5994 337.036 80.7234Z" fill="white"/>
<path d="M535.14 67.4813C544.759 67.6123 552.159 71.3675 558.435 78.8955C555.297 81.5903 552.287 84.175 548.88 87.0996C544.833 82.3618 539.151 78.5594 532.11 80.3034C528.029 81.3143 523.626 83.7335 520.869 86.8479C514.081 94.516 515.445 108.269 522.84 115.04C530.209 121.789 540.03 120.719 549.331 111.826C551.909 114.933 554.505 118.063 557.369 121.517C550.406 130.221 540.218 133.43 528.399 131.449C516.352 129.429 507.91 122.261 504.555 110.627C498.06 88.1006 511.462 67.3065 535.14 67.4813Z" fill="white"/>
<path d="M459.1 81.7492C463.087 91.9196 466.93 101.733 471.155 112.524C475.929 100.598 480.346 89.5615 484.766 78.526C488.844 68.3428 488.846 68.3412 499.76 68.5608C500.415 68.5741 501.069 68.6634 502.277 68.7628C500.201 74.0325 498.236 79.0669 496.236 84.0877C490.584 98.28 484.831 112.433 479.326 126.682C478.144 129.74 476.769 131.004 473.269 130.89C464.073 130.591 464.032 130.816 460.658 122.395C453.561 104.682 446.504 86.9541 439.16 68.5565C443.78 68.5565 447.865 68.3773 451.914 68.6773C452.981 68.7563 454.347 70.1237 454.868 71.2321C456.419 74.5301 457.619 77.9937 459.1 81.7492Z" fill="white"/>
</svg>
